<?xml version="1.0" standalone="yes"?>
<svg xmlns="http://www.w3.org/2000/svg" width="1200" height="1200">
<path style="fill:#47714d; stroke:none;" d="M0 0L0 1200L1200 1200L1200 0L0 0z"/>
<path style="fill:#efefef; stroke:none;" d="M115 444L115 445L124 456L163 425.4L243 360.424L474 172.75L566 98.0811L590 78.6003L600 72.0016L610 78.5757L632 96.3997L722 169.6L962 364.424L1037 425.424L1076 456L1085 445L1052 416.919L973 352.75L719 146.2L632 75.5757L610 57.6111L600 51.1775L590 57.6111L567 76.3889L476 150.4L258 327.551L115 444z"/>
<path style="fill:#f1f1f1; stroke:none;" d="M595 53L596 54L595 53M604 53L605 54L604 53M590 57L591 58L590 57M609 57L610 58L609 57M585 61L586 62L585 61M614 61L615 62L614 61M584 62L585 63L584 62M615 62L616 63L615 62M579 66L580 67L579 66M620 66L621 67L620 66M574 70L575 71L574 70M599.667 70.3334L600.333 70.6666L599.667 70.3334M625 70L626 71L625 70M598 71L599 72L598 71M601 71L602 72L601 71M569 74L570 75L569 74M605 74L606 75L605 74M630 74L631 75L630 74M568 75L569 76L568 75M593 75L594 76L593 75M606 75L607 76L606 75M631 75L632 76L631 75M563 79L564 80L563 79M588 79L589 80L588 79M611 79L612 80L611 79M636 79L637 80L636 79M558 83L559 84L558 83M583 83L584 84L583 83M616 83L617 84L616 83M641 83L642 84L641 83M582 84L583 85L582 84M617 84L618 85L617 84M553 87L554 88L553 87M646 87L647 88L646 87M552 88L553 89L552 88M577 88L578 89L577 88M622 88L623 89L622 88M647 88L648 89L647 88M547 92L548 93L547 92M572 92L573 93L572 92M627 92L628 93L627 92M652 92L653 93L652 92M542 96L543 97L542 96M567 96L568 97L567 96M632 96L633 97L632 96M657 96L658 97L657 96M566 97L567 98L566 97M633 97L634 98L633 97M537 100L538 101L537 100M637 100L638 101L637 100M662 100L663 101L662 100M536 101L537 102L536 101M561 101L562 102L561 101M638 101L639 102L638 101M663 101L664 102L663 101M531 105L532 106L531 105M556 105L557 106L556 105M643 105L644 106L643 105M668 105L669 106L668 105M526 109L527 110L526 109M551 109L552 110L551 109M648 109L649 110L648 109M673 109L674 110L673 109M550 110L551 111L550 110M649 110L650 111L649 110M521 113L522 114L521 113M678 113L679 114L678 113M520 114L521 115L520 114M545 114L546 115L545 114M654 114L655 115L654 114M679 114L680 115L679 114M515 118L516 119L515 118M540 118L541 119L540 118M659 118L660 119L659 118M684 118L685 119L684 118M510 122L511 123L510 122M535 122L536 123L535 122M664 122L665 123L664 122M689 122L690 123L689 122M534 123L535 124L534 123M665 123L666 124L665 123M669 126L670 127L669 126M694 126L695 127L694 126M504 127L505 128L504 127M529 127L530 128L529 127M670 127L671 128L670 127M695 127L696 128L695 127M499 131L500 132L499 131M524 131L525 132L524 131M675 131L676 132L675 131M700 131L701 132L700 131M498 132L499 133L498 132M519 135L520 136L519 135M680 135L681 136L680 135M705 135L706 136L705 135M493 136L494 137L493 136M518 136L519 137L518 136M681 136L682 137L681 136M710 139L711 140L710 139M488 140L489 141L488 140M513 140L514 141L513 140M686 140L687 141L686 140M711 140L712 141L711 140M483 144L484 145L483 144M508 144L509 145L508 144M691 144L692 145L691 144M716 144L717 145L716 144M482 145L483 146L482 145M503 148L504 149L503 148M696 148L697 149L696 148M721 148L722 149L721 148M477 149L478 150L477 149M697 149L698 150L697 149M498 152L499 153L498 152M701 152L702 153L701 152M726 152L727 153L726 152M472 153L473 154L472 153M702 153L703 154L702 153M727 153L728 154L727 153M493 156L494 157L493 156M467 157L468 158L467 157M492 157L493 158L492 157M707 157L708 158L707 157M732 157L733 158L732 157M466 158L467 159L466 158M487 161L488 162L487 161M712 161L713 162L712 161M737 161L738 162L737 161M461 162L462 163L461 162M713 162L714 163L713 162M482 165L483 166L482 165M742 165L743 166L742 165M456 166L457 167L456 166M718 166L719 167L718 166M743 166L744 167L743 166M477 169L478 170L477 169M451 170L452 171L451 170M476 170L477 171L476 170M723 170L724 171L723 170M748 170L749 171L748 170M450 171L451 172L450 171M471 174L472 175L471 174M728 174L729 175L728 174M753 174L754 175L753 174M445 175L446 176L445 175M729 175L730 176L729 175M466 178L467 179L466 178M733 178L734 179L733 178M758 178L759 179L758 178M440 179L441 180L440 179M734 179L735 180L734 179M759 179L760 180L759 179M461 182L462 183L461 182M435 183L436 184L435 183M460 183L461 184L460 183M739 183L740 184L739 183M764 183L765 184L764 183M434 184L435 185L434 184M765 184L766 185L765 184M455 187L456 188L455 187M744 187L745 188L744 187M429 188L430 189L429 188M745 188L746 189L745 188M770 188L771 189L770 188M450 191L451 192L450 191M424 192L425 193L424 192M750 192L751 193L750 192M775 192L776 193L775 192M445 195L446 196L445 195M419 196L420 197L419 196M444 196L445 197L444 196M755 196L756 197L755 196M780 196L781 197L780 196M418 197L419 198L418 197M781 197L782 198L781 197M439 200L440 201L439 200M760 200L761 201L760 200M413 201L414 202L413 201M761 201L762 202L761 201M786 201L787 202L786 201M434 204L435 205L434 204M765 204L766 205L765 204M408 205L409 206L408 205M791 205L792 206L791 205M429 208L430 209L429 208M770 208L771 209L770 208M403 209L404 210L403 209M428 209L429 210L428 209M771 209L772 210L771 209M796 209L797 210L796 209M402 210L403 211L402 210M797 210L798 211L797 210M775 212L776 213L775 212M423 213L424 214L423 213M776 213L777 214L776 213M397 214L398 215L397 214M802 214L803 215L802 214M418 217L419 218L418 217M781 217L782 218L781 217M392 218L393 219L392 218M807 218L808 219L807 218M413 221L414 222L413 221M786 221L787 222L786 221M387 222L388 223L387 222M412 222L413 223L412 222M787 222L788 223L787 222M812 222L813 223L812 222M386 223L387 224L386 223M813 223L814 224L813 223M407 226L408 227L407 226M792 226L793 227L792 226M381 227L382 228L381 227M818 227L819 228L818 227M402 230L403 231L402 230M797 230L798 231L797 230M376 231L377 232L376 231M823 231L824 232L823 231M397 234L398 235L397 234M371 235L372 236L371 235M396 235L397 236L396 235M803 235L804 236L803 235M828 235L829 236L828 235M370 236L371 237L370 236M829 236L830 237L829 236M391 239L392 240L391 239M808 239L809 240L808 239M365 240L366 241L365 240M834 240L835 241L834 240M386 243L387 244L386 243M813 243L814 244L813 243M360 244L361 245L360 244M839 244L840 245L839 244M381 247L382 248L381 247M818 247L819 248L818 247M355 248L356 249L355 248M380 248L381 249L380 248M819 248L820 249L819 248M844 248L845 249L844 248M354 249L355 250L354 249M845 249L846 250L845 249M375 252L376 253L375 252M824 252L825 253L824 252M349 253L350 254L349 253M825 253L826 254L825 253M850 253L851 254L850 253M370 256L371 257L370 256M829 256L830 257L829 256M344 257L345 258L344 257M855 257L856 258L855 257M365 260L366 261L365 260M834 260L835 261L834 260M339 261L340 262L339 261M364 261L365 262L364 261M835 261L836 262L835 261M860 261L861 262L860 261M338 262L339 263L338 262M861 262L862 263L861 262M359 265L360 266L359 265M840 265L841 266L840 265M333 266L334 267L333 266M866 266L867 267L866 266M354 269L355 270L354 269M845 269L846 270L845 269M328 270L329 271L328 270M871 270L872 271L871 270M349 273L350 274L349 273M850 273L851 274L850 273M323 274L324 275L323 274M348 274L349 275L348 274M851 274L852 275L851 274M876 274L877 275L876 274M322 275L323 276L322 275M877 275L878 276L877 275M343 278L344 279L343 278M856 278L857 279L856 278M317 279L318 280L317 279M882 279L883 280L882 279M338 282L339 283L338 282M861 282L862 283L861 282M312 283L313 284L312 283M887 283L888 284L887 283M333 286L334 287L333 286M866 286L867 287L866 286M307 287L308 288L307 287M332 287L333 288L332 287M867 287L868 288L867 287M892 287L893 288L892 287M306 288L307 289L306 288M893 288L894 289L893 288M327 291L328 292L327 291M872 291L873 292L872 291M301 292L302 293L301 292M898 292L899 293L898 292M322 295L323 296L322 295M877 295L878 296L877 295M296 296L297 297L296 296M903 296L904 297L903 296M317 299L318 300L317 299M882 299L883 300L882 299M291 300L292 301L291 300M316 300L317 301L316 300M883 300L884 301L883 300M908 300L909 301L908 300M290 301L291 302L290 301M909 301L910 302L909 301M311 304L312 305L311 304M888 304L889 305L888 304M285 305L286 306L285 305M914 305L915 306L914 305M306 308L307 309L306 308M893 308L894 309L893 308M280 309L281 310L280 309M919 309L920 310L919 309M301 312L302 313L301 312M898 312L899 313L898 312M275 313L276 314L275 313M300 313L301 314L300 313M899 313L900 314L899 313M924 313L925 314L924 313M274 314L275 315L274 314M925 314L926 315L925 314M295 317L296 318L295 317M904 317L905 318L904 317M269 318L270 319L269 318M930 318L931 319L930 318M290 321L291 322L290 321M909 321L910 322L909 321M264 322L265 323L264 322M935 322L936 323L935 322M285 325L286 326L285 325M463 325L464 326L463 325z"/>
<path style="fill:#efefef; stroke:none;" d="M450 368L750 368C750 354.91 754.495 333.641 740 326.769C733.771 323.815 725.695 325 719 325L677 325L527 325L481 325C473.969 325 465.382 323.705 459.001 327.279C445.674 334.742 450 355.185 450 368z"/>
<path style="fill:#f1f1f1; stroke:none;" d="M736 325L737 326L736 325M914 325L915 326L914 325M259 326L260 327L259 326M284 326L285 327L284 326M915 326L916 327L915 326M940 326L941 327L940 326M258 327L259 328L258 327M458 327L459 328L458 327M741 327L742 328L741 327M941 327L942 328L941 327M254 330L255 331L254 330M279 330L280 331L279 330M454 330L455 331L454 330M745 330L746 331L745 330M920 330L921 331L920 330M946 331L947 332L946 331M249 334L250 335L249 334M274 334L275 335L274 334M925 334L926 335L925 334M248 335L249 336L248 335M951 335L952 336L951 335M450 337L451 338L450 337M749 337L750 338L749 337M269 338L270 339L269 338M930 338L931 339L930 338M243 339L244 340L243 339M268 339L269 340L268 339M931 339L932 340L931 339M956 339L957 340L956 339M957 340L958 341L957 340M238 343L239 344L238 343M263 343L264 344L263 343M936 343L937 344L936 343M237 344L238 345L237 344M962 344L963 345L962 344M258 347L259 348L258 347M941 347L942 348L941 347M232 348L233 349L232 348M967 348L968 349L967 348M946 351L947 352L946 351M227 352L228 353L227 352M252 352L253 353L252 352M947 352L948 353L947 352M972 352L973 353L972 352M973 353L974 354L973 353M222 356L223 357L222 356M247 356L248 357L247 356M952 356L953 357L952 356M221 357L222 358L221 357M246 357L247 358L246 357M978 357L979 358L978 357M242 360L243 361L242 360M957 360L958 361L957 360M216 361L217 362L216 361M241 361L242 362L241 361M983 361L984 362L983 361M962 364L963 365L962 364M211 365L212 366L211 365M236 365L237 366L236 365M963 365L964 366L963 365M988 365L989 366L988 365M989 366L990 367L989 366M206 369L207 370L206 369M231 369L232 370L231 369M968 369L969 370L968 369M205 370L206 371L205 370M994 370L995 371L994 370M226 373L227 374L226 373M973 373L974 374L973 373M200 374L201 375L200 374M225 374L226 375L225 374M999 374L1000 375L999 374M978 377L979 378L978 377M195 378L196 379L195 378M220 378L221 379L220 378M979 378L980 379L979 378M1004 378L1005 379L1004 378z"/>
<path style="fill:#efefef; stroke:none;" d="M450 379L450 530L450 570C450 574.805 448.573 582.51 451.179 586.772C454.195 591.704 463.131 590 468 590L516 590L690 590L733 590C737.452 590 745.001 591.395 748.258 587.566C751.375 583.902 750 576.461 750 572L750 533L750 379L450 379z"/>
<path style="fill:#f1f1f1; stroke:none;" d="M1005 379L1006 380L1005 379M190 382L191 383L190 382M215 382L216 383L215 382M984 382L985 383L984 382M189 383L190 384L189 383M1010 383L1011 384L1010 383M210 386L211 387L210 386M989 386L990 387L989 386M184 387L185 388L184 387M209 387L210 388L209 387M1015 387L1016 388L1015 387M994 390L995 391L994 390M179 391L180 392L179 391M204 391L205 392L204 391M995 391L996 392L995 391M1020 391L1021 392L1020 391M178 392L179 393L178 392M199 395L200 396L199 395M1000 395L1001 396L1000 395M1025 395L1026 396L1025 395M173 396L174 397L173 396M1026 396L1027 397L1026 396M194 399L195 400L194 399M1005 399L1006 400L1005 399M168 400L169 401L168 400M193 400L194 401L193 400M1031 400L1032 401L1031 400M189 403L190 404L189 403M1010 403L1011 404L1010 403M163 404L164 405L163 404M188 404L189 405L188 404M1011 404L1012 405L1011 404M1036 404L1037 405L1036 404M162 405L163 406L162 405M183 408L184 409L183 408M1016 408L1017 409L1016 408M1041 408L1042 409L1041 408M157 409L158 410L157 409M1017 409L1018 410L1017 409M1042 409L1043 410L1042 409M178 412L179 413L178 412M152 413L153 414L152 413M1022 413L1023 414L1022 413M1047 413L1048 414L1047 413M173 416L174 417L173 416M147 417L148 418L147 417M172 417L173 418L172 417M1027 417L1028 418L1027 417M1052 417L1053 418L1052 417M146 418L147 419L146 418M1053 418L1054 419L1053 418M167 421L168 422L167 421M1032 421L1033 422L1032 421M141 422L142 423L141 422M1058 422L1059 423L1058 422M162 425L163 426L162 425M1037 425L1038 426L1037 425M136 426L137 427L136 426M1038 426L1039 427L1038 426M1063 426L1064 427L1063 426M537 428L538 429L537 428z"/>
<path style="fill:#47714d; stroke:none;" d="M568 469C559.345 477.655 550.825 486.478 542.001 494.961C538.898 497.944 532.919 501.799 534.647 506.941C537.192 514.511 544.682 508.145 548 505.281C557.914 496.723 575.542 483.855 581.249 472C583.356 467.624 577.47 462.844 574.816 459.961C566.916 451.379 558.22 443.544 550.184 435.09C547.199 431.949 543.303 426.576 538.228 428.758C532.076 431.403 537.26 438.115 540.019 441C548.972 450.362 557.363 461.507 568 469z"/>
<path style="fill:#f1f1f1; stroke:none;" d="M543 428L544 429L543 428M157 429L158 430L157 429M131 430L132 431L131 430M156 430L157 431L156 430M535 430L536 431L535 430M1043 430L1044 431L1043 430M1068 430L1069 431L1068 430M130 431L131 432L130 431M546 431L547 432L546 431M1069 431L1070 432L1069 431M548 433L549 434L548 433M151 434L152 435L151 434M549 434L550 435L549 434M1048 434L1049 435L1048 434M125 435L126 436L125 435M550 435L551 436L550 435M1074 435L1075 436L1074 435M551 436L552 437L551 436M552 437L553 438L552 437M146 438L147 439L146 438M553 438L554 439L553 438M1053 438L1054 439L1053 438M120 439L121 440L120 439M554 439L555 440L554 439M1079 439L1080 440L1079 439M119 440L120 441L119 440M539 440L540 441L539 440M1080 440L1081 441L1080 440M540 441L541 442L540 441M556 441L557 442L556 441M141 442L142 443L141 442M541 442L542 443L541 442M1058 442L1059 443L1058 442M542 443L543 444L542 443M1059 443L1060 444L1059 443M543 444L544 445L543 444M544 445L545 446L544 445M136 446L137 447L136 446M545 446L546 447L545 446M1063 446L1064 447L1063 446M117 447L118 448L117 447M135 447L136 448L135 447M546 447L547 448L546 447M1064 447L1065 448L1064 447M1082 447L1083 448L1082 447M547 448L548 449L547 448M548 449L549 450L548 449M130 451L131 452L130 451M1069 451L1070 452L1069 451M122 453L123 454L122 453M1077 453L1078 454L1077 453M125 455L126 456L125 455M1074 455L1075 456L1074 455M577 463L578 464L577 463M579 465L580 466L579 465M580 466L581 467L580 466M581 467L582 468L581 467M582 468L583 469L582 468M583.333 469.667L583.667 470.333L583.333 469.667M582 471L583 472L582 471M581 472L582 473L581 472M579 474L580 475L579 474M546 490L547 491L546 490M545 491L546 492L545 491M544 492L545 493L544 492M543 493L544 494L543 493M542 494L543 495L542 494M541 495L542 496L541 495M540 496L541 497L540 496M539 497L540 498L539 497M538 498L539 499L538 498M585 500L586 501L585 500z"/>
<path style="fill:#47714d; stroke:none;" d="M586.134 500.742C581.323 502.869 582.31 509.161 587.055 510.566C592.963 512.317 600.87 511 607 511L649 511C654.254 511 665.318 513.068 669.471 509.258C678.107 501.335 660.878 500 657 500L608 500C601.717 500 591.955 498.169 586.134 500.742z"/>
<path style="fill:#f1f1f1; stroke:none;" d="M668 500L669 501L668 500M548 504L549 505L548 504M582 504L583 505L582 504M671 504L672 505L671 504M547 505L548 506L547 505M546 506L547 507L546 506M582 506L583 507L582 506M671 506L672 507L671 506M545 507L546 508L545 507M544 508L545 509L544 508M543 509L544 510L543 509M585 510L586 511L585 510M668 510L669 511L668 510M450 586L451 587L450 586M749 586L750 587L749 586M893.667 663.333L894.333 663.667L893.667 663.333z"/>
<path style="fill:#efefef; stroke:none;" d="M485 714C464.239 701.942 448.974 731.975 444.899 749C442.909 757.313 443.264 767.376 451.093 772.521C464.045 781.031 475.662 770.413 483.09 760C497.831 739.337 502.174 712.067 493.921 688C491.76 681.696 487.537 667.975 480.907 665.136C474.368 662.336 468.071 671.432 470.713 677C476.538 689.279 483.857 700.005 485 714z"/>
<path style="fill:#f1f1f1; stroke:none;" d="M481 664L482 665L481 664z"/>
<path style="fill:#efefef; stroke:none;" d="M860 775C860.176 753.71 875.069 722.333 897 716C895.412 723.572 891.412 729.502 885.961 734.961C883.005 737.92 877.353 740.833 876.357 745.171C872.887 760.294 890.93 800.922 908 778C897.289 770.294 889.086 758.993 886 746C895.605 743.572 903.032 734.783 904.674 725C907.039 710.919 896.096 707.63 886 715.24C882.915 717.565 880.116 720.091 877.59 723.015C874.132 727.018 870.884 731.031 869 736C868.678 721.413 884.518 700.73 893.435 690C896.596 686.196 903.118 681.611 904.759 676.961C907.414 669.438 895.177 661.233 889.326 667.148C870.973 685.701 858.371 720.285 851.428 745C848.561 755.205 846.936 771.255 860 775z"/>
<path style="fill:#f1f1f1; stroke:none;" d="M474 666L475 667L474 666M899 666L900 667L899 666M900 667L901 668L900 667M484 668L485 669L484 668M901 668L902 669L901 668M887 669L888 670L887 669M902 669L903 670L902 669M486 671L487 672L486 671M885 672L886 673L885 672M904 672L905 673L904 672M487 673L488 674L487 673M488 675L489 676L488 675M883 675L884 676L883 675M347 676L348 677L347 676z"/>
<path style="fill:#efefef; stroke:none;" d="M339 692C335.155 710.578 325.777 728.713 318.14 746C315.387 752.231 309.159 761.11 309.064 768C308.975 774.396 316.831 778.479 322 780L339 731L346 732C347.836 745.624 352.705 764.733 360.916 775.945C364.729 781.152 376.901 782.592 378.083 773.96C378.632 769.941 373.12 765.066 371.029 762C364.572 752.535 360.615 742.361 356 732C367.566 729 379.058 725.233 386.362 715C398.702 697.71 386.558 678.275 367 676.174C353.551 674.728 339.733 677.088 327 681.333C323.157 682.614 317.17 683.867 314.697 687.39C311.999 691.234 316.52 699.506 321.015 699.887C325.655 700.279 334.618 694.05 339 692z"/>
<path style="fill:#f1f1f1; stroke:none;" d="M369 676L370 677L369 676M470 676L471 677L470 676M341 677L342 678L341 677M373 677L374 678L373 677M489 677L490 678L489 677M751 677L752 678L751 677z"/>
<path style="fill:#efefef; stroke:none;" d="M718 688C722.285 706.032 732.777 696.135 745 692C739.187 702.921 733.371 713.628 728.424 725C724.692 733.58 721.191 742.275 717.811 751C716.281 754.95 712.935 760.673 713.699 764.999C715.413 774.707 730.802 778.781 739 778.985C756.188 779.413 774.309 773.375 784.841 758.999C792.239 748.902 794.366 731.532 781 725L781 723C798.951 716.897 802.356 689.896 785 680.996C765.898 671.201 735.617 677.72 718 688z"/>
<path style="fill:#f1f1f1; stroke:none;" d="M774 677L775 678L774 677M376 678L377 679L376 678M745 678L746 679L745 678M778 678L779 679L778 678M881 678L882 679L881 678M490 679L491 680L490 679M740 679L741 680L740 679M781 679L782 680L781 679M329 680L330 681L329 680M736 680L737 681L736 680M326 681L327 682L326 681M473 681L474 682L473 681M900 681L901 682L900 681M323 682L324 683L323 682M383 682L384 683L383 682M787 682L788 683L787 682M899 682L900 683L899 682M474 683L475 684L474 683M878 683L879 684L878 683M492 684L493 685L492 684M722 685L723 686L722 685M364.667 686.333L365.333 686.667L364.667 686.333z"/>
<path style="fill:#47714d; stroke:none;" d="M359 687C359.643 698.152 347.304 712.661 343 723C355.614 720.658 368.36 721.135 378.957 712.471C386.515 706.291 389.106 693.617 378.995 688.457C372.774 685.281 365.6 686.864 359 687z"/>
<path style="fill:#f1f1f1; stroke:none;" d="M370.667 686.333L371.333 686.667L370.667 686.333M387 686L388 687L387 686M769.667 686.333L770.333 686.667L769.667 686.333z"/>
<path style="fill:#47714d; stroke:none;" d="M748 718C760.303 718 797.349 717.052 790.346 695.015C787.663 686.571 770.481 683.203 763.498 688.027C756.236 693.044 751.118 709.963 748 718z"/>
<path style="fill:#f1f1f1; stroke:none;" d="M775.667 686.333L776.333 686.667L775.667 686.333M313 687L314 688L313 687M762 687L763 688L762 687M379 688L380 689L379 688M784 688L785 689L784 688M793 688L794 689L793 688M786 689L787 690L786 689M893 689L894 690L893 689M313 690L314 691L313 690M382 690L383 691L382 690M718 690L719 691L718 690M383 691L384 692L383 691M390 692L391 693L390 692M789 692L790 693L789 692M795 692L796 693L795 692M873 692L874 693L873 692M335 693L336 694L335 693M495 693L496 694L495 693M740 693L741 694L740 693M744 693L745 694L744 693M357 694L358 695L357 694M759 694L760 695L759 694M872 694L873 695L872 694M889 694L890 695L889 694M330 695L331 696L330 695M385 695L386 696L385 695M480 695L481 696L480 695M735 695L736 696L735 695M328 696L329 697L328 696M733 696L734 697L733 696M871 696L872 697L871 696M326 697L327 698L326 697M391 697L391 701L392 701L391 697M496 697L497 698L496 697M731 697L732 698L731 697M796 697L797 698L796 697M887 697L888 698L887 697M337 698L338 699L337 698M481 698L482 699L481 698M741 698L742 699L741 698M870 698L871 699L870 698M318 699L319 700L318 699M723 699L724 700L723 699M319 700L320 701L319 700M724 700L725 701L724 700M869 700L870 701L869 700M885 700L886 701L885 700M336 701L337 702L336 701M385 702L386 703L385 702M796.333 702.667L796.667 703.333L796.333 702.667M868 702L869 703L868 702M497 703L498 704L497 703M883 703L884 704L883 703M335 704L336 705L335 704M789 704L790 705L789 704M867 704L868 705L867 704M351 705L352 706L351 705M384 705L385 706L384 705M390 706L391 707L390 706M334 707L335 708L334 707M350 707L351 708L350 707z"/>
<path style="fill:#efefef; stroke:none;" d="M662 707C652.075 721.724 644.029 738.489 640.45 756C639.694 759.699 638.01 775.833 646.029 773.654C651.034 772.294 655.177 763.877 658.13 760C665.196 750.722 673.388 740.286 684 735C679.834 742.822 674.947 754.115 678.264 762.996C682.016 773.04 696.569 771.529 701 763L700 762C681.944 765.148 698.23 735.578 702.783 729C704.603 726.371 707.82 723.499 706.11 720.044C702.27 712.289 693.201 716.196 688 719.775C675.214 728.572 666.088 741.452 656 753C661.431 739.957 685.223 714.9 662 707z"/>
<path style="fill:#f1f1f1; stroke:none;" d="M664 707L665 708L664 707M787 707L788 708L787 707M795 707L796 708L795 707M786 708L787 709L786 708M880 708L881 709L880 708M349 709L350 710L349 709M389 709L390 710L389 709M484 709L485 710L484 709M575 709L576 710L575 709z"/>
<path style="fill:#efefef; stroke:none;" d="M547 761C548.058 747.619 550.338 729.245 558 718L558 717C543.752 708.784 543.079 724.409 536.471 733C531.45 739.527 524.419 744.33 521 752L520 752C520.257 739.537 523.552 726.412 532 717L532 716C507.642 701.955 502.43 746.522 502.13 762C502.053 765.955 504.262 774.264 509.91 772.578C513.616 771.472 515.995 765.945 518.026 763C523.437 755.149 529.281 747.775 536 741C534.978 748.912 528.133 764.171 535.279 770.562C541.772 776.37 549.914 765.086 554 761C569.811 745.189 578.704 731.497 584 710C580.518 708.98 575.593 708.255 572.938 711.514C568.852 716.53 569.011 726.904 566.547 733C562.302 743.502 554.766 752.885 547 761z"/>
<path style="fill:#f1f1f1; stroke:none;" d="M583 709L584 710L583 709M660 709L661 710L660 709M667 709L668 710L667 709M785 709L786 710L785 709M827 709L828 710L827 709z"/>
<path style="fill:#efefef; stroke:none;" d="M839 752C833.845 755.631 818.888 773.412 812.089 763.768C807.071 756.648 813.321 753.047 819 750.244C828.995 745.311 852.8 727.983 841.682 714.044C834.671 705.253 823.335 710.003 816.001 715.681C803.041 725.714 786.469 756.106 804.043 769.362C813.993 776.867 824.906 771.353 833 763.907C836.775 760.434 840.995 757.26 839 752z"/>
<path style="fill:#f1f1f1; stroke:none;" d="M471 710L472 711L471 710M668 710L669 711L668 710M824 710L825 711L824 710M894 710L895 711L894 710M900 710L901 711L900 710M348 711L349 712L348 711M388 711L389 712L388 711M469 711L470 712L469 711M480 711L481 712L480 711M583 711L584 712L583 711M822 711L823 712L822 711M901 711L902 712L901 711M332 712L333 713L332 712z"/>
<path style="fill:#efefef; stroke:none;" d="M418 751L419 751C415.972 761.776 416.651 777.386 432 770C427.218 759.238 430.742 748.539 434.811 738C436.262 734.243 440.89 727.159 439.583 723.109C438.481 719.696 433.978 718.872 431 718C423.96 730.062 418.312 742.668 409.985 754C408.059 756.62 403.379 763.803 399.333 762.539C395.018 761.19 399.22 751.432 400.313 749C405.874 736.631 414.885 727.742 427 722C422.632 709.159 411.274 711.308 403.015 719.093C393.499 728.063 385.458 742.661 385.129 756C384.709 773.019 398.738 774.676 408.91 763.985C412.574 760.134 415.722 755.794 418 751z"/>
<path style="fill:#f1f1f1; stroke:none;" d="M419 712L420 713L419 712z"/>
<path style="fill:#efefef; stroke:none;" d="M613 751L614 751C610.972 761.776 611.651 777.386 627 770C622.218 759.238 625.742 748.539 629.811 738C631.262 734.243 635.89 727.159 634.583 723.109C633.481 719.696 628.978 718.872 626 718C618.96 730.062 613.312 742.668 604.985 754C603.059 756.62 598.379 763.803 594.333 762.539C590.018 761.19 594.22 751.432 595.313 749C600.874 736.631 609.885 727.742 622 722C617.632 709.159 606.274 711.308 598.015 719.093C588.499 728.063 580.458 742.661 580.129 756C579.709 773.019 593.738 774.676 603.91 763.985C607.574 760.134 610.722 755.794 613 751z"/>
<path style="fill:#f1f1f1; stroke:none;" d="M614 712L615 713L614 712M658 712L659 713L658 712M820 712L821 713L820 712M840 712L841 713L840 712M902 712L903 713L902 712M347 713L348 714L347 713M377 713L378 714L377 713M410 713L411 714L410 713M526 713L527 714L526 713M605 713L606 714L605 713M779 713L780 714L779 713M841 713L842 714L841 713M863 713L864 714L863 713M888 713L889 714L888 713M465 714L466 715L465 714M546 714L547 715L546 714M552 714L553 715L552 714M571 714L572 715L571 714M671 714L672 715L671 714M749 714L750 715L749 714M777 714L778 715L777 714M817 714L818 715L817 714M842 714L843 715L842 714M346 715L347 716L346 715M374 715L375 716L374 715M407 715L408 716L407 715M531 715L532 716L531 715M545 715L546 716L545 715M602 715L603 716L602 715M656 715L657 716L656 715M696 715L697 716L696 715M816 715L817 716L816 715M862 715L863 716L862 715M372 716L373 717L372 716M672 716L673 717L672 716M693 716L694 717L693 716M732 716L733 717L732 716M748 716L749 717L748 716M884 716L885 717L884 716M894 716L895 717L894 716M896 716L897 717L896 716M370 717L371 718L370 717M531 717L532 718L531 717M582 717L583 718L582 717M655 717L656 718L655 717M691 717L692 718L691 717M704 717L705 718L704 717M768 717L769 718L768 717M875 717L876 718L875 717M883 717L884 718L883 717M383 718L384 719L383 718M432 718L433 719L432 718M485 718L486 719L485 718M543 718L544 719L543 718M627 718L628 719L627 718M705 718L706 719L705 718M731 718L732 719L731 718M747.667 718.333L748.333 718.667L747.667 718.333M329 719L330 720L329 719M382 719L383 720L382 719M426 719L427 720L426 719M460 719L461 720L460 719z"/>
<path style="fill:#47714d; stroke:none;" d="M486 719C472.763 722.442 462.85 741.128 458.204 753C456.636 757.007 453.655 765.874 458.434 768.957C463.525 772.241 469.701 764.406 472.239 761C481.788 748.184 483.396 734.108 486 719z"/>
<path style="fill:#f1f1f1; stroke:none;" d="M529 719L530 720L529 719M556 719L557 720L556 719M570 719L571 720L570 719M621 719L622 720L621 719M688 719L689 720L688 719M888 719L889 720L888 719M361 720L362 721L361 720M459 720L460 721L459 720M485 720L486 721L485 720M528 720L529 721L528 720M730 720L731 721L730 720M887 720L888 721L887 720M356 721L357 722L356 721M439 721L440 722L439 721M480 721L481 722L480 721M510 721L511 722L510 721M555 721L556 722L555 721M634 721L635 722L634 721M707 721L708 722L707 721M833 721L835 723L835 721L833 721M345 722L345 723L349 723L345 722M440 722L441 723L440 722M485 722L485 725L486 725L485 722M635 722L636 723L635 722M672 722L673 723L672 722M684 722L685 723L684 722z"/>
<path style="fill:#47714d; stroke:none;" d="M812 748C822.209 743.17 833.376 734.02 834 722C822.573 724.07 813.876 737.108 812 748z"/>
<path style="fill:#f1f1f1; stroke:none;" d="M843 722L844 723L843 722M859 722L860 723L859 722M895 722L896 723L895 722M377 723L378 724L377 723M541 723L542 724L541 723M683 723L684 724L683 723M781.333 723.667L781.667 724.333L781.333 723.667M808 723L809 724L808 723M877 723L878 724L877 723M440 724L441 725L440 724M456 724L457 725L456 724M497 724L498 725L497 724M635 724L636 725L635 724M671 724L672 725L671 724M876 724L877 725L876 724M894 724L895 725L894 724M374 725L375 726L374 725M397 725L398 726L397 725M592 725L593 726L592 725M326 726L327 727L326 726M372 726L373 727L372 726M417 726L418 727L417 726M439 726L440 727L439 726M540 726L541 727L540 726M612 726L613 727L612 726M634 726L635 727L634 726M824 726L825 727L824 726M842 726L843 727L842 726M904 726L905 727L904 726M370 727L371 728L370 727M553 727L554 728L553 727M568 727L569 728L568 727M579 727L580 728L579 727M650 727L651 728L650 727M727 727L728 728L727 727M743 727L744 728L743 727M772 727L773 728L772 727z"/>
<path style="fill:#47714d; stroke:none;" d="M743 728L729 766C744.507 769.82 763.553 765.726 774.907 753.96C780.605 748.054 785.898 736.303 778.606 729.322C774.887 725.762 769.342 728.365 765 729.195C757.503 730.629 750.24 730.259 743 728z"/>
<path style="fill:#f1f1f1; stroke:none;" d="M805 727L806 728L805 727M823 727L824 728L823 727M857 727L858 728L857 727M395 728L396 729L395 728M438 728L439 729L438 728M473 728L474 729L473 728M590 728L591 729L590 728M633 728L634 729L633 728M768 728L769 729L768 728M822 728L823 729L822 728M870 728L871 729L870 728M879 728L880 729L879 728M365 729L366 730L365 729M472 729L473 730L472 729M496 729L497 730L496 729M649 729L650 730L649 729M668 729L669 730L668 729M742 729L743 730L742 729M746 729L747 730L746 729M763 729L764 730L763 729M786 729L787 730L786 729M821 729L822 730L821 729M841 729L842 730L841 729M872 729L873 730L872 729M878 729L879 730L878 729M903 729L904 730L903 729M362 730L363 731L362 730M452 730L453 731L452 730M701 730L702 731L701 730M357 731L358 732L357 731M393 731L394 732L393 731M523 731L524 732L523 731M588 731L589 732L588 731M780 731L781 732L780 731M889 731L890 732L889 731M423 732L424 733L423 732M618 732L619 733L618 732M788 732L789 733L788 732M802 732L803 733L802 732M870 732L871 733L870 732M888 732L889 733L888 732M323 733L324 734L323 733M436 733L437 734L436 733M495 733L496 734L495 733M536 733L537 734L536 733M566 733L567 734L566 733M576 733L577 734L576 733M631 733L632 734L631 733M818 733L819 734L818 733M868 733L869 734L868 733M875 733L876 734L875 733M887 733L888 734L887 733M901 733L902 734L901 733M337 734L338 735L337 734M422 734L423 735L422 734M522 734L523 735L522 734M535 734L536 735L535 734M617 734L618 735L617 734M665 734L666 735L665 734M724 734L725 735L724 734M789 734L790 735L789 734M801 734L802 735L801 734z"/>
<path style="fill:#47714d; stroke:none;" d="M868 734L869 735L868 734z"/>
<path style="fill:#f1f1f1; stroke:none;" d="M886 734L887 735L886 734M346 735L347 736L346 735M506 735L507 736L506 735M575 735L576 736L575 735M682 735L683 736L682 735z"/>
<path style="fill:#47714d; stroke:none;" d="M683 735L684 736L683 735z"/>
<path style="fill:#f1f1f1; stroke:none;" d="M828 735L829 736L828 735M838 735L839 736L838 735M854 735L855 736L854 735M868 735L869 736L868 735M885 735L886 736L885 735M336 736L337 737L336 736M407 736L408 737L407 736M483 736L484 737L483 736M494 736L495 737L494 736M533 736L534 737L533 736M602 736L603 737L602 736M646 736L647 737L646 736M680 736L681 737L680 736M739 736L740 737L739 736M816 736L817 737L816 736M827 736L828 737L827 736z"/>
<path style="fill:#47714d; stroke:none;" d="M867 736L868 737L867 736z"/>
<path style="fill:#f1f1f1; stroke:none;" d="M884 736L885 737L884 736M899 736L900 737L899 736M466 737L467 738L466 737M532 737L533 738L532 737M669 737L670 738L669 737M790 737L791 738L790 737M826 737L827 738L826 737M883 737L884 738L883 737M321 738L322 739L321 738M358 738L359 739L358 738M434 738L435 739L434 738M448 738L449 739L448 738M531 738L532 739L531 738M573 738L574 739L573 738M629 738L630 739L629 738M668 738L669 739L668 738M825 738L826 739L825 738M853 738L854 739L853 738M882 738L883 739L882 738M419 739L420 740L419 739M482 739L483 740L482 739M493 739L494 740L493 739M530 739L531 740L530 739M550 739L551 740L550 739M614 739L615 740L614 739M645 739L646 740L645 739M662 739L663 740L662 739M676 739L677 740L676 739M722 739L723 740L722 739M824 739L825 740L824 739z"/>
<path style="fill:#efefef; stroke:none;" d="M124 740L115 751L115 752C156.82 792.021 206.014 826.351 251 862.804C326.434 923.929 401.183 985.945 477 1046.6C507.162 1070.73 536.838 1095.47 567 1119.6C574.731 1125.79 582.317 1132.15 590 1138.39C592.591 1140.49 596.408 1144.82 600 1144.82C603.592 1144.82 607.41 1140.49 610 1138.39L633 1119.61C662.977 1095.25 692.843 1070.74 723 1046.6C803.122 982.475 882.626 917.477 962 852.424C1002.58 819.166 1047.11 788.264 1085 752L1085 751L1076 740L1036 771.576L962 831.576L723 1025.8L633 1099L610 1117.61L600 1124.12L590 1117.61L568 1099.8L478 1026.6L244 836.576L165 772.389L124 740z"/>
<path style="fill:#f1f1f1; stroke:none;" d="M125 740L126 741L125 740M320 740L321 741L320 740M505 740L506 741L505 740M675 740L676 741L675 740M681 740L682 741L681 740M823 740L824 741L823 740M1074 740L1075 741L1074 740M334 741L335 742L334 741M388 741L389 742L388 741M418 741L419 742L418 741M433 741L434 742L433 741M562 741L563 742L562 741M583 741L584 742L583 741M613 741L614 742L613 741M628 741L629 742L628 741M661 741L662 742L661 741M674 741L675 742L674 741M737 741L738 742L737 741M852 741L853 742L852 741M122 742L123 743L122 742M348 742L349 743L348 742M403 742L404 743L403 742M463 742L464 743L463 742M481 742L482 743L481 742M570 742L571 743L570 742M598 742L599 743L598 742M673 742L674 743L673 742M798 742L799 743L798 742M813 742L814 743L813 742M869 742L870 743L869 742M1077 742L1078 743L1077 742M333 743L334 744L333 743M360 743L361 744L360 743M446 743L447 744L446 743M664 743L665 744L664 743M672 743L673 744L672 743M819 743L820 744L819 743M830 743L831 744L830 743M892 743L893 744L892 743M130 744L131 745L130 744M432 744L433 745L432 744M491 744L492 745L491 744M560 744L561 745L560 744M627 744L628 745L627 744M663 744L664 745L663 744M671 744L672 745L671 744M694 744L695 745L694 744M720 744L721 745L720 744M1069 744L1070 745L1069 744M318 745L319 746L318 745M361 745L362 746L361 745M480 745L481 746L480 745M504 745L505 746L504 745M520 745L521 746L520 745M670 745L671 746L670 745M816 745L817 746L816 745M867 745L868 746L867 745M888 745L889 746L888 745M445 746L446 747L445 746M524 746L525 747L524 746M669 746L670 747L669 746M735 746L736 747L735 746M797 746L798 747L797 746M118 747L119 748L118 747M317 747L318 748L317 747M362 747L363 748L362 747M386 747L387 748L386 747M431 747L432 748L431 747M529 747L530 748L529 747M558 747L559 748L558 747M581 747L582 748L581 747M626 747L627 748L626 747M668 747L669 748L668 747M693 747L694 748L693 747M790 747L791 748L790 747M824 747L825 748L824 747M866 747L867 748L866 747M1081 747L1082 748L1081 747M135 748L136 749L135 748M331 748L332 749L331 748M565 748L566 749L565 748M642 748L643 749L642 748M667 748L668 749L667 748M822 748L823 749L822 748M886 748L887 749L886 748M1064 748L1065 749L1064 748M136 749L137 750L136 749M350 749L351 750L350 749M363 749L364 750L363 749M413 749L414 750L413 749M534 749L535 750L534 749M564 749L565 750L564 749M608 749L609 750L608 749M666 749L667 750L666 749M718 749L719 750L718 749M778 749L779 750L778 749M820 749L821 750L820 749M865 749L866 750L865 749M876 749L877 750L876 749M1063 749L1064 750L1063 749M399 750L400 751L399 750M444 750L445 751L444 750M548 750L549 751L548 750M594 750L595 751L594 750M658 750L659 751L658 750M692 750L693 751L692 750M818 750L819 751L818 750M330 751L331 752L330 751M364 751L365 752L364 751z"/>
<path style="fill:#47714d; stroke:none;" d="M418 751L419 752L418 751z"/>
<path style="fill:#f1f1f1; stroke:none;" d="M430 751L431 752L430 751M520 751L521 752L520 751M555 751L556 752L555 751z"/>
<path style="fill:#47714d; stroke:none;" d="M613 751L614 752L613 751z"/>
<path style="fill:#f1f1f1; stroke:none;" d="M625 751L626 752L625 751z"/>
<path style="fill:#47714d; stroke:none;" d="M656.333 751.667L656.667 752.333L656.333 751.667z"/>
<path style="fill:#f1f1f1; stroke:none;" d="M657 751L658 752L657 751M733 751L734 752L733 751M816 751L817 752L816 751M864 751L865 752L864 751M887 751L888 752L887 751M115 752L116 753L115 752M385 752L386 753L385 752M417.667 752.333L418.333 752.667L417.667 752.333M458 752L459 753L458 752M519 752L520 753L519 752M525 752L526 753L525 752M580 752L581 753L580 752M612.667 752.333L613.333 752.667L612.667 752.333M839 752L840 753L839 752M1084 752L1085 753L1084 752M116 753L117 754L116 753M141 753L142 754L141 753M398 753L399 754L398 753M524 753L525 754L524 753M533 753L534 754L533 753M593 753L594 754L593 753M677 753L678 754L677 753M811 753L812 754L811 753M840 753L841 754L840 753M1058 753L1059 754L1058 753M1083 753L1084 754L1083 753M314 754L315 755L314 754M486 754L487 755L486 754M716 754L717 755L716 754M849 754L850 755L849 754M863 754L864 755L863 754M415 755L416 756L415 755M610 755L611 756L610 755M661 755L662 756L661 755M691 755L692 756L691 755M408 756L409 757L408 756M417 756L418 757L417 756M522 756L523 757L522 756M551 756L552 757L551 756M603 756L604 757L603 756M612 756L613 757L612 756M660 756L661 757L660 756M786 756L787 757L786 756M121 757L122 758L121 757M146 757L147 758L146 757M407 757L408 758L407 757M429 757L430 758L429 757M474 757L475 758L474 757M502.333 757.667L502.667 758.333L502.333 757.667M550 757L551 758L550 757M602 757L603 758L602 757M624 757L625 758L624 757M715 757L716 758L715 757M862 757L863 758L862 757M1053 757L1054 758L1053 757M1078 757L1079 758L1078 757M147 758L148 759L147 758M368 758L369 759L368 758M413 758L414 759L413 758M608 758L609 759L608 758M769 758L770 759L769 758M878 758L879 759L878 758M1052 758L1053 759L1052 758M412 759L413 760L412 759M532.333 759.667L532.667 760.333L532.333 759.667M607 759L608 760L607 759M784 759L785 760L784 759M385 760L386 761L385 760M482 760L483 761L482 760M519 760L520 761L519 760M554 760L555 761L554 760M580 760L581 761L580 760M657 760L658 761L657 760M677 760L678 761L677 760M766 760L767 761L766 760M783 760L784 761L783 760M126 761L127 762L126 761M370 761L371 762L370 761M546 761L547 762L546 761M553 761L554 762L553 761M639 761L640 762L639 761M764 761L765 762L764 761M828 761L829 762L828 761M835 761L836 762L835 761M861 761L862 762L861 761M1073 761L1074 762L1073 761M152 762L153 763L152 762M402 762L403 763L402 762M552 762L553 763L552 762M597 762L598 763L597 762M697 762L698 763L697 762M762 762L763 763L762 762M798 762L799 763L798 762M849 762L850 763L849 762M879 762L880 763L879 762M1047 762L1048 763L1047 762M310 763L311 764L310 763M429 763L430 764L429 763M517 763L518 764L517 763M551 763L552 764L551 763M624 763L625 764L624 763M729 763L730 764L729 763M825 763L826 764L825 763M893 763L894 764L893 763M372 764L373 765L372 764M386 764L387 765L386 764M479 764L480 765L479 764M550 764L551 765L550 764M581 764L582 765L581 764M654 764L655 765L654 764M757 764L758 765L757 764M799 764L800 765L799 764M823 764L824 765L823 764M131 765L132 766L131 765M309 765L310 766L309 765M549 765L550 766L549 765M754 765L755 766L754 765M812 765L813 766L812 765M821 765L822 766L821 765M1068 765L1069 766L1068 765M132 766L133 767L132 766M157 766L158 767L157 766M325 766L326 767L325 766M445 766L446 767L445 766M502 766L503 767L502 766M515 766L516 767L515 766M532 766L533 767L532 766M548 766L549 767L548 766M639 766L640 767L639 766M730 766L731 767L730 766M750 766L751 767L750 766M777 766L778 767L777 766M814 766L815 767L814 766M817 766L818 767L817 766M850 766L851 767L850 766M895 766L896 767L895 766M1042 766L1043 767L1042 766M1067 766L1068 767L1067 766M308 767L309 768L308 767M356 767L357 768L356 767M417 767L418 768L417 767M430 767L431 768L430 767M456 767L457 768L456 767M547 767L548 768L547 767M612 767L613 768L612 767M625 767L626 768L625 767M714 767L715 768L714 767M735.667 767.333L736.333 767.667L735.667 767.333M741 767L741 768L744 768L741 767M828 767L829 768L828 767M860 767L861 768L860 767M375 768L376 769L375 768M388 768L389 769L388 768M583 768L584 769L583 768M651 768L652 769L651 768M695 768L696 769L695 768M851 768L852 769L851 768M136 769L137 770L136 769M308 769L309 770L308 769M357 769L358 770L357 769M389 769L390 770L389 769M402 769L403 770L402 769M447 769L448 770L447 769M503 769L504 770L503 769M513 769L514 770L513 769M584 769L585 770L584 769M597 769L598 770L597 769M640 769L641 770L640 769M773 769L774 770L773 769M825 769L826 770L825 769M852 769L853 770L852 769M881 769L882 770L881 769M137 770L138 771L137 770M162 770L163 771L162 770M390 770L391 771L390 770M431 770L432 771L431 770M473 770L474 771L473 770M534 770L535 771L534 770M585 770L586 771L585 770M626 770L627 771L626 770M823 770L824 771L823 770M853 770L854 771L853 770M1037 770L1038 771L1037 770M1062 770L1063 771L1062 770M163 771L164 772L163 771M420 771L421 772L420 771M449 771L450 772L449 771M535 771L536 772L535 771M542 771L543 772L542 771M615 771L616 772L615 771M641 771L642 772L641 771M807 771L808 772L807 771M899 771L900 772L899 771M1036 771L1037 772L1036 771M310 772L311 773L310 772M506 772L507 773L506 772M537 772L538 773L537 772M648 772L649 773L648 772M719 772L720 773L719 772M768 772L769 773L768 772M819 772L820 773L819 772M900 772L901 773L900 772M311 773L312 774L311 773M323 773L324 774L323 773M359 773L360 774L359 773M379 773L380 774L379 773M452 773L453 774L452 773M469 773L470 774L469 773M508 773L509 774L508 773M510 773L511 774L510 773M647 773L648 774L647 773M766 773L767 774L766 773M814 773L815 774L814 773M816 773L817 774L816 773M855 773L856 774L855 773M901 773L902 774L901 773M142 774L143 775L142 774M454 774L455 775L454 774M467 774L468 775L467 774M646 774L647 775L646 774M722 774L723 775L722 774M764 774L765 775L764 774M860 774L861 775L860 774M883 774L884 775L883 774M1057 774L1058 775L1057 774M168 775L169 776L168 775M457 775L458 776L457 775M1031 775L1032 776L1031 775M314 776L315 777L314 776M726 776L727 777L726 776M884 776L885 777L884 776M905 776L906 777L905 776M729 777L730 778L729 777M147 778L148 779L147 778M317 778L318 779L317 778M322 778L323 779L322 778M374 778L375 779L374 778M733 778L734 779L733 778M751 778L752 779L751 778M885 778L886 779L885 778M1052 778L1053 779L1052 778M148 779L149 780L148 779M173 779L174 780L173 779M319 779L320 780L319 779M1026 779L1027 780L1026 779M366 780L367 781L366 780M370 780L371 781L370 780M887 781L888 782L887 781M888 782L889 783L888 782M1047 782L1048 783L1047 782M153 783L154 784L153 783M178 783L179 784L178 783M889 783L890 784L889 783M1021 783L1022 784L1021 783M1046 783L1047 784L1046 783M179 784L180 785L179 784M899 784L900 785L899 784M1020 784L1021 785L1020 784M158 787L159 788L158 787M1016 787L1017 788L1016 787M1041 787L1042 788L1041 787M184 788L185 789L184 788M163 791L164 792L163 791M1011 791L1012 792L1011 791M1036 791L1037 792L1036 791M164 792L165 793L164 792M189 792L190 793L189 792M1010 792L1011 793L1010 792M1031 795L1032 796L1031 795M169 796L170 797L169 796M194 796L195 797L194 796M1005 796L1006 797L1005 796M1030 796L1031 797L1030 796M195 797L196 798L195 797M174 800L175 801L174 800M1000 800L1001 801L1000 800M1025 800L1026 801L1025 800M200 801L201 802L200 801M179 804L180 805L179 804M995 804L996 805L995 804M1020 804L1021 805L1020 804M205 805L206 806L205 805M994 805L995 806L994 805M184 808L185 809L184 808M185 809L186 810L185 809M210 809L211 810L210 809M989 809L990 810L989 809M1014 809L1015 810L1014 809M211 810L212 811L211 810M190 813L191 814L190 813M984 813L985 814L984 813M1009 813L1010 814L1009 813M216 814L217 815L216 814M1008 814L1009 815L1008 814M195 817L196 818L195 817M979 817L980 818L979 817M221 818L222 819L221 818M978 818L979 819L978 818M1003 818L1004 819L1003 818M200 821L201 822L200 821M201 822L202 823L201 822M226 822L227 823L226 822M973 822L974 823L973 822M998 822L999 823L998 822M227 823L228 824L227 823M206 826L207 827L206 826M968 826L969 827L968 826M993 826L994 827L993 826M232 827L233 828L232 827M992 827L993 828L992 827M211 830L212 831L211 830M963 830L964 831L963 830M237 831L238 832L237 831M962 831L963 832L962 831M987 831L988 832L987 831M216 834L217 835L216 834M217 835L218 836L217 835M242 835L243 836L242 835M957 835L958 836L957 835M982 835L983 836L982 835M243 836L244 837L243 836M222 839L223 840L222 839M952 839L953 840L952 839M977 839L978 840L977 839M248 840L249 841L248 840M976 840L977 841L976 840M227 843L228 844L227 843M947 843L948 844L947 843M253 844L254 845L253 844M946 844L947 845L946 844M971 844L972 845L971 844M232 847L233 848L232 847M233 848L234 849L233 848M258 848L259 849L258 848M941 848L942 849L941 848M966 848L967 849L966 848M238 852L239 853L238 852M263 852L264 853L263 852M936 852L937 853L936 852M961 852L962 853L961 852M960 853L961 854L960 853M243 856L244 857L243 856M268 856L269 857L268 856M931 856L932 857L931 856M269 857L270 858L269 857M930 857L931 858L930 857M955 857L956 858L955 857M248 860L249 861L248 860M249 861L250 862L249 861M274 861L275 862L274 861M925 861L926 862L925 861M950 861L951 862L950 861M253 864L254 865L253 864M254 865L255 866L254 865M279 865L280 866L279 865M920 865L921 866L920 865M945 865L946 866L945 865M255 866L256 867L255 866M280 866L281 867L280 866M944 866L945 867L944 866M284 869L285 870L284 869M915 869L916 870L915 869M260 870L261 871L260 870M285 870L286 871L285 870M914 870L915 871L914 870M939 870L940 871L939 870M265 874L266 875L265 874M290 874L291 875L290 874M909 874L910 875L909 874M934 874L935 875L934 874M270 878L271 879L270 878M295 878L296 879L295 878M904 878L905 879L904 878M929 878L930 879L929 878M271 879L272 880L271 879M296 879L297 880L296 879M928 879L929 880L928 879M899 882L900 883L899 882M276 883L277 884L276 883M301 883L302 884L301 883M898 883L899 884L898 883M923 883L924 884L923 883M281 887L282 888L281 887M306 887L307 888L306 887M893 887L894 888L893 887M918 887L919 888L918 887M286 891L287 892L286 891M311 891L312 892L311 891M888 891L889 892L888 891M913 891L914 892L913 891M287 892L288 893L287 892M312 892L313 893L312 892M912 892L913 893L912 892M883 895L884 896L883 895M292 896L293 897L292 896M317 896L318 897L317 896M882 896L883 897L882 896M907 896L908 897L907 896M297 900L298 901L297 900M322 900L323 901L322 900M877 900L878 901L877 900M902 900L903 901L902 900M302 904L303 905L302 904M327 904L328 905L327 904M872 904L873 905L872 904M897 904L898 905L897 904M328 905L329 906L328 905M896 905L897 906L896 905M867 908L868 909L867 908M308 909L309 910L308 909M333 909L334 910L333 909M866 909L867 910L866 909M891 909L892 910L891 909M313 913L314 914L313 913M338 913L339 914L338 913M861 913L862 914L861 913M886 913L887 914L886 913M318 917L319 918L318 917M343 917L344 918L343 917M856 917L857 918L856 917M881 917L882 918L881 917M319 918L320 919L319 918M344 918L345 919L344 918M880 918L881 919L880 918M323 921L324 922L323 921M851 921L852 922L851 921M324 922L325 923L324 922M349 922L350 923L349 922M850 922L851 923L850 922M875 922L876 923L875 922M329 926L330 927L329 926M354 926L355 927L354 926M845 926L846 927L845 926M870 926L871 927L870 926M334 930L335 931L334 930M359 930L360 931L359 930M840 930L841 931L840 930M865 930L866 931L865 930M360 931L361 932L360 931M864 931L865 932L864 931M339 934L340 935L339 934M835 934L836 935L835 934M340 935L341 936L340 935M365 935L366 936L365 935M834 935L835 936L834 935M859 935L860 936L859 935M345 939L346 940L345 939M370 939L371 940L370 939M829 939L830 940L829 939M854 939L855 940L854 939M350 943L351 944L350 943M375 943L376 944L375 943M824 943L825 944L824 943M849 943L850 944L849 943M376 944L377 945L376 944M848 944L849 945L848 944M355 947L356 948L355 947M819 947L820 948L819 947M356 948L357 949L356 948M381 948L382 949L381 948M818 948L819 949L818 948M843 948L844 949L843 948M361 952L362 953L361 952M386 952L387 953L386 952M813 952L814 953L813 952M838 952L839 953L838 952M387 953L388 954L387 953M366 956L367 957L366 956M808 956L809 957L808 956M833 956L834 957L833 956M392 957L393 958L392 957M832 957L833 958L832 957M371 960L372 961L371 960M803 960L804 961L803 960M372 961L373 962L372 961M397 961L398 962L397 961M802 961L803 962L802 961M827 961L828 962L827 961M377 965L378 966L377 965M402 965L403 966L402 965M797 965L798 966L797 965M822 965L823 966L822 965M403 966L404 967L403 966M382 969L383 970L382 969M792 969L793 970L792 969M817 969L818 970L817 969M408 970L409 971L408 970M816 970L817 971L816 970M387 973L388 974L387 973M787 973L788 974L787 973M388 974L389 975L388 974M413 974L414 975L413 974M786 974L787 975L786 974M811 974L812 975L811 974M393 978L394 979L393 978M418 978L419 979L418 978M781 978L782 979L781 978M806 978L807 979L806 978M419 979L420 980L419 979M398 982L399 983L398 982M776 982L777 983L776 982M801 982L802 983L801 982M424 983L425 984L424 983M800 983L801 984L800 983M403 986L404 987L403 986M771 986L772 987L771 986M404 987L405 988L404 987M429 987L430 988L429 987M770 987L771 988L770 987M795 987L796 988L795 987M409 991L410 992L409 991M434 991L435 992L434 991M765 991L766 992L765 991M790 991L791 992L790 991M435 992L436 993L435 992M414 995L415 996L414 995M760 995L761 996L760 995M785 995L786 996L785 995M440 996L441 997L440 996M759 996L760 997L759 996M784 996L785 997L784 996M419 999L420 1000L419 999M420 1000L421 1001L420 1000M445 1000L446 1001L445 1000M754 1000L755 1001L754 1000M779 1000L780 1001L779 1000M425 1004L426 1005L425 1004M450 1004L451 1005L450 1004M749 1004L750 1005L749 1004M774 1004L775 1005L774 1004M451 1005L452 1006L451 1005M748 1005L749 1006L748 1005M430 1008L431 1009L430 1008M769 1008L770 1009L769 1008M456 1009L457 1010L456 1009M743 1009L744 1010L743 1009M768 1009L769 1010L768 1009M435 1012L436 1013L435 1012M436 1013L437 1014L436 1013M461 1013L462 1014L461 1013M738 1013L739 1014L738 1013M763 1013L764 1014L763 1013M759 1016L760 1017L759 1016M441 1017L442 1018L441 1017M466 1017L467 1018L466 1017M733 1017L734 1018L733 1017M758 1017L759 1018L758 1017M467 1018L468 1019L467 1018M732 1018L733 1019L732 1018M446 1021L447 1022L446 1021M753 1021L754 1022L753 1021M472 1022L473 1023L472 1022M727 1022L728 1023L727 1022M451 1025L452 1026L451 1025M748 1025L749 1026L748 1025M452 1026L453 1027L452 1026M477 1026L478 1027L477 1026M722 1026L723 1027L722 1026M747 1026L748 1027L747 1026M457 1030L458 1031L457 1030M482 1030L483 1031L482 1030M717 1030L718 1031L717 1030M742 1030L743 1031L742 1030M716 1031L717 1032L716 1031M462 1034L463 1035L462 1034M487 1034L488 1035L487 1034M737 1034L738 1035L737 1034M488 1035L489 1036L488 1035M711 1035L712 1036L711 1035M732 1038L733 1039L732 1038M468 1039L469 1040L468 1039M493 1039L494 1040L493 1039M706 1039L707 1040L706 1039M731 1039L732 1040L731 1039M473 1043L474 1044L473 1043M498 1043L499 1044L498 1043M701 1043L702 1044L701 1043M726 1043L727 1044L726 1043M700 1044L701 1045L700 1044M478 1047L479 1048L478 1047M503 1047L504 1048L503 1047M721 1047L722 1048L721 1047M504 1048L505 1049L504 1048M695 1048L696 1049L695 1048M483 1051L484 1052L483 1051M508 1051L509 1052L508 1051M716 1051L717 1052L716 1051M484 1052L485 1053L484 1052M509 1052L510 1053L509 1052M690 1052L691 1053L690 1052M715 1052L716 1053L715 1052M489 1056L490 1057L489 1056M514 1056L515 1057L514 1056M685 1056L686 1057L685 1056M710 1056L711 1057L710 1056M490 1057L491 1058L490 1057M515 1057L516 1058L515 1057M684 1057L685 1058L684 1057M494 1060L495 1061L494 1060M705 1060L706 1061L705 1060M495 1061L496 1062L495 1061M520 1061L521 1062L520 1061M679 1061L680 1062L679 1061M700 1064L701 1065L700 1064M500 1065L501 1066L500 1065M525 1065L526 1066L525 1065M674 1065L675 1066L674 1065M695 1068L696 1069L695 1068M505 1069L506 1070L505 1069M530 1069L531 1070L530 1069M669 1069L670 1070L669 1069M694 1069L695 1070L694 1069M531 1070L532 1071L531 1070M668 1070L669 1071L668 1070M510 1073L511 1074L510 1073M689 1073L690 1074L689 1073M536 1074L537 1075L536 1074M663 1074L664 1075L663 1074M515 1077L516 1078L515 1077M684 1077L685 1078L684 1077M541 1078L542 1079L541 1078M658 1078L659 1079L658 1078M520 1081L521 1082L520 1081M679 1081L680 1082L679 1081M521 1082L522 1083L521 1082M546 1082L547 1083L546 1082M653 1082L654 1083L653 1082M678 1082L679 1083L678 1082M547 1083L548 1084L547 1083M652 1083L653 1084L652 1083M526 1086L527 1087L526 1086M673 1086L674 1087L673 1086M552 1087L553 1088L552 1087M647 1087L648 1088L647 1087M531 1090L532 1091L531 1090M668 1090L669 1091L668 1090M557 1091L558 1092L557 1091M642 1091L643 1092L642 1091M536 1094L537 1095L536 1094M663 1094L664 1095L663 1094M537 1095L538 1096L537 1095M562 1095L563 1096L562 1095M637 1095L638 1096L637 1095M662 1095L663 1096L662 1095M563 1096L564 1097L563 1096M636 1096L637 1097L636 1096M541 1098L542 1099L541 1098M542 1099L543 1100L542 1099M657 1099L658 1100L657 1099M568 1100L569 1101L568 1100M631 1100L632 1101L631 1100M547 1103L548 1104L547 1103M652 1103L653 1104L652 1103M573 1104L574 1105L573 1104M626 1104L627 1105L626 1104M552 1107L553 1108L552 1107M647 1107L648 1108L647 1107M553 1108L554 1109L553 1108M578 1108L579 1109L578 1108M621 1108L622 1109L621 1108M646 1108L647 1109L646 1108M579 1109L580 1110L579 1109M620 1109L621 1110L620 1109M558 1112L559 1113L558 1112M641 1112L642 1113L641 1112M584 1113L585 1114L584 1113M615 1113L616 1114L615 1113M563 1116L564 1117L563 1116M636 1116L637 1117L636 1116M589 1117L590 1118L589 1117M610 1117L611 1118L610 1117M568 1120L569 1121L568 1120M631 1120L632 1121L631 1120M569 1121L570 1122L569 1121M594 1121L595 1122L594 1121M605 1121L606 1122L605 1121M630 1121L631 1122L630 1121M595 1122L596 1123L595 1122M604 1122L605 1123L604 1122M573 1124L574 1125L573 1124M574 1125L575 1126L574 1125M625 1125L626 1126L625 1125M579 1129L580 1130L579 1129M620 1129L621 1130L620 1129M584 1133L585 1134L584 1133M615 1133L616 1134L615 1133M585 1134L586 1135L585 1134M614 1134L615 1135L614 1134M590 1138L591 1139L590 1138M609 1138L610 1139L609 1138M595 1142L596 1143L595 1142M604 1142L605 1143L604 1142z"/>
</svg>
